<svg xmlns="http://www.w3.org/2000/svg" viewBox="0 0 32 32" fill="none">
  <circle cx="16" cy="12" r="5" stroke="#c4785a" stroke-width="1.2"/>
  <circle cx="16" cy="12" r="2" fill="#c4785a" opacity="0.2"/>
  <path d="M16 7c-1 2-2.5 3-2.5 5a2.5 2.5 0 0 0 5 0c0-2-1.5-3-2.5-5z" stroke="#c4785a" stroke-width="1" fill="none"/>
  <path d="M16 17v6" stroke="#c4785a" stroke-width="1.2" stroke-linecap="round"/>
  <path d="M13 20c-2 1-3.5 .5-4.5 0" stroke="#c4785a" stroke-width="1" stroke-linecap="round"/>
  <path d="M19 20c2 1 3.5 .5 4.5 0" stroke="#c4785a" stroke-width="1" stroke-linecap="round"/>
  <path d="M14 23c-1 1.5-2 2.5-3 3" stroke="#c4785a" stroke-width="1" stroke-linecap="round"/>
  <path d="M18 23c1 1.5 2 2.5 3 3" stroke="#c4785a" stroke-width="1" stroke-linecap="round"/>
</svg>
