<svg xmlns="http://www.w3.org/2000/svg" viewBox="0 0 1440 320" preserveAspectRatio="none">
  <path d="M0,224L48,213.3C96,203,192,181,288,176C384,171,480,181,576,197.3C672,213,768,235,864,224C960,213,1056,171,1152,154.7C1248,139,1344,149,1392,154.7L1440,160L1440,320L1392,320C1344,320,1248,320,1152,320C1056,320,960,320,864,320C768,320,672,320,576,320C480,320,384,320,288,320C192,320,96,320,48,320L0,320Z" fill="#45685d" fill-opacity="0.04"/>
  <path d="M0,256L48,261.3C96,267,192,277,288,272C384,267,480,245,576,240C672,235,768,245,864,250.7C960,256,1056,256,1152,245.3C1248,235,1344,213,1392,202.7L1440,192L1440,320L1392,320C1344,320,1248,320,1152,320C1056,320,960,320,864,320C768,320,672,320,576,320C480,320,384,320,288,320C192,320,96,320,48,320L0,320Z" fill="#bc2a18" fill-opacity="0.02"/>
</svg>
