<svg xmlns="http://www.w3.org/2000/svg" viewBox="0 0 64 64">
  <path fill="#000" d="M52 30c0-1-.1-2-.3-3C51 21.4 46.2 17 40.5 17c-1.5 0-2.9.3-4.2.8C34 13.4 29.3 10 24 10c-7.2 0-13 5.8-13 13 0 .7.1 1.3.1 2C6.2 26.5 3 30.6 3 35.5 3 41.3 7.7 46 13.5 46h35c5.8 0 10.5-4.7 10.5-10.5 0-3.5-1.7-6.6-4.3-8.5.2-1 .3-2 .3-3zM48.5 42h-35C10 42 7 39 7 35.5S10 29 13.5 29h1.2l-.2-2c0-5 4-9 9-9 4 0 7.4 2.6 8.6 6.3l.9 2.7 2-2C36.8 23.7 38.5 23 40.5 23c3.6 0 6.5 2.9 6.5 6.5v1.5h2c3.3 0 6 2.7 6 6s-2.7 6-6 6z"/>
  <path fill="#000" d="M48.5 42h-35C10 42 7 39 7 35.5S10 29 13.5 29h1.2l-.2-2c0-5 4-9 9-9 4 0 7.4 2.6 8.6 6.3l.9 2.7 2-2C36.8 23.7 38.5 23 40.5 23c3.6 0 6.5 2.9 6.5 6.5v1.5h2c3.3 0 6 2.7 6 6s-2.7 6-6 6z" opacity="0.3"/>
</svg>
