<svg xmlns="http://www.w3.org/2000/svg" viewBox="0 0 64 64">
  <path fill="#000" d="M32 8c-2 6-8 14-8 24 0 2 .2 4 .6 6L32 52l7.4-14c.4-2 .6-4 .6-6 0-10-6-18-8-24z" opacity="0.2"/>
  <path fill="#000" d="M32 16c-3 4-6 10-6 18l6 10 6-10c0-8-3-14-6-18z"/>
  <path fill="#000" d="M18 12c2 6 6 14 14 20-8-2-14-6-18-12 1-3 2-6 4-8z"/>
  <path fill="#000" d="M46 12c-2 6-6 14-14 20 8-2 14-6 18-12-1-3-2-6-4-8z"/>
  <path fill="#000" d="M10 24c6 2 14 6 22 8-8 0-16-2-22-4v-4z"/>
  <path fill="#000" d="M54 24c-6 2-14 6-22 8 8 0 16-2 22-4v-4z"/>
  <path fill="#000" d="M30 48h4v8h-4z" opacity="0.5"/>
  <circle fill="#000" cx="32" cy="8" r="3"/>
</svg>
